<?xml version="1.0" encoding="UTF-8"?>
<svg version="1.1" xmlns="http://www.w3.org/2000/svg" width="512" height="512">
<path d="M0 0 C1.7147989 -0.00543257 3.42959312 -0.01256154 5.14437866 -0.02124023 C9.76428744 -0.03934176 14.38383546 -0.03246101 19.00374985 -0.01972389 C23.86098889 -0.00952743 28.71819907 -0.01900789 33.57543945 -0.02526855 C41.72905974 -0.03252573 49.88253464 -0.0230081 58.03613281 -0.00390625 C67.43443995 0.01785875 76.83239986 0.01080601 86.23069859 -0.01121187 C94.33048993 -0.02942106 102.43017735 -0.03189731 110.52998257 -0.0214572 C115.35424418 -0.0152525 120.17834312 -0.01430267 125.00259399 -0.02760315 C129.54021919 -0.03924176 134.077401 -0.03099123 138.61497879 -0.00802612 C140.27045586 -0.00278149 141.92597088 -0.00417906 143.58143234 -0.01307678 C162.75926703 -0.10657239 178.46445649 5.25271181 192.57421875 18.51757812 C201.64318345 28.2034792 207.81622405 39.29725584 207.83148766 52.79981136 C207.83499373 53.50208144 207.8384998 54.20435151 207.84211212 54.92790249 C207.85139647 57.27492645 207.84651052 59.62170066 207.84164429 61.96873474 C207.84538208 63.67104245 207.84998411 65.37334843 207.85537493 67.07565171 C207.86760507 71.7492177 207.86734443 76.42271212 207.86498618 81.09629047 C207.864578 86.13879491 207.87561747 91.1812764 207.88510132 96.22377014 C207.90171386 106.10289493 207.90721104 115.98199586 207.90832607 125.86113345 C207.90927671 133.89477685 207.91338778 141.92841239 207.91972733 149.9620533 C207.93734272 172.74938641 207.94656607 195.53670068 207.94506638 218.32404064 C207.94498647 219.55249541 207.94490655 220.78095019 207.94482422 222.04663086 C207.94474246 223.2765899 207.9446607 224.50654894 207.94457646 225.77377946 C207.94376413 245.69239247 207.9628876 265.61092975 207.99110095 285.52952086 C208.01985547 305.99208967 208.03363974 326.45462159 208.0319134 346.91721112 C208.03125024 358.40108725 208.03670956 369.88488408 208.0582695 381.36874199 C208.07651537 391.15001052 208.0808009 400.93116381 208.06725065 410.71244203 C208.06073737 415.69873464 208.06054419 420.68480637 208.07795715 425.67107773 C208.09376639 430.2453989 208.0907447 434.81932553 208.07338889 439.39363755 C208.07033611 441.03906055 208.07388559 442.68451359 208.08510904 444.32990115 C208.21330378 464.47520585 203.64346249 481.47484471 189.57421875 496.51757812 C179.28187503 506.38668528 165.28901634 512.74744794 151.01802063 512.78500366 C150.30165237 512.78953478 149.58528411 512.79406589 148.84720773 512.79873431 C146.47009256 512.81129586 144.09320893 512.80976332 141.71606445 512.80810547 C140.00200611 512.81409597 138.28795046 512.82090271 136.57389832 512.82846069 C131.93313678 512.84607694 127.29244908 512.85081429 122.65165734 512.85209227 C119.74688663 512.85351715 116.84213448 512.85779319 113.93736839 512.8630867 C103.78806753 512.88157404 93.63881909 512.88975913 83.48950195 512.88818359 C74.05439958 512.88698325 64.61952635 512.90806785 55.18448192 512.93967092 C47.06357929 512.96589512 38.94275121 512.97654829 30.82180661 512.97527277 C25.98067896 512.97476485 21.13975499 512.98035337 16.29866982 513.00162888 C11.74062804 513.02111453 7.18298205 513.02106575 2.62492561 513.00659561 C0.96137661 513.00451901 -0.70219785 513.00913912 -2.36570358 513.02131653 C-20.58166416 513.14592119 -35.87549357 508.36924957 -49.3984375 495.67773438 C-63.86471767 480.26375955 -66.89522872 462.54825958 -66.8134613 442.19772339 C-66.81764258 440.48652204 -66.82312443 438.77532346 -66.82978112 437.06412995 C-66.84414964 432.39862053 -66.84001813 427.73328905 -66.8326143 423.06777024 C-66.82786368 418.02205163 -66.84040898 412.97637047 -66.85063171 407.93066406 C-66.86778641 398.0611799 -66.86866687 388.19175949 -66.86341881 378.3222643 C-66.85937067 370.29923903 -66.8608283 362.27623254 -66.86616707 354.25320816 C-66.86691549 353.10957014 -66.86766391 351.96593212 -66.86843501 350.7876384 C-66.86996654 348.46409065 -66.87150489 346.1405429 -66.87304998 343.81699516 C-66.88676227 322.0521145 -66.88134564 300.28726985 -66.86986477 278.52239002 C-66.85992755 258.62091615 -66.8728838 238.71953519 -66.89679896 218.81807564 C-66.92119201 198.36434036 -66.9307977 177.91064835 -66.92414623 157.45689881 C-66.92065528 145.9810841 -66.92287832 134.50534089 -66.94039726 123.0295372 C-66.95512151 113.26368882 -66.95575136 103.49796232 -66.93832635 93.73211633 C-66.92981707 88.75235081 -66.92766534 83.772803 -66.94297791 78.79304886 C-66.95683621 74.22969419 -66.95204715 69.66674353 -66.93273867 65.10341217 C-66.92898197 63.45759958 -66.93189106 61.81175454 -66.94235032 60.16597091 C-67.04494315 42.77894396 -62.39880067 30.52481119 -50.62890625 17.65429688 C-36.47392059 3.92596858 -19.12302637 -0.10278183 0 0 Z M-39.859375 34.31835938 C-47.77235179 45.42809985 -48.42578125 54.79374814 -48.42578125 68.51757812 C30.11421875 68.51757812 108.65421875 68.51757812 189.57421875 68.51757812 C189.57421875 52.62684709 187.62243033 41.22553308 176.84375 29.62695312 C165.79613552 19.35894655 153.51936942 18.0686662 139.12158203 18.11352539 C137.463242 18.10781546 135.8049059 18.1008488 134.14657593 18.09272766 C129.66298509 18.07484889 125.17959054 18.07595478 120.69597483 18.08167005 C116.94370022 18.08476988 113.19146289 18.07866056 109.43919361 18.0726313 C100.5819892 18.05860472 91.72488128 18.06013151 82.86767578 18.0715332 C73.75116629 18.08300987 64.63495113 18.06894209 55.51848042 18.04213673 C47.67188649 18.01993491 39.82538465 18.01335251 31.97876155 18.01921314 C27.3009256 18.02257354 22.62327824 18.02022901 17.9454689 18.00296211 C13.54416516 17.98742364 9.14329524 17.99152449 4.74200821 18.01026726 C3.13406453 18.01393427 1.5260882 18.01090022 -0.08182526 18.00038147 C-15.96275638 17.90448565 -29.40913418 21.5889477 -39.859375 34.31835938 Z M-48.42578125 86.51757812 C-48.42578125 187.49757813 -48.42578125 288.47757813 -48.42578125 392.51757812 C30.11421875 392.51757812 108.65421875 392.51757812 189.57421875 392.51757812 C189.57421875 291.53757812 189.57421875 190.55757812 189.57421875 86.51757812 C111.03421875 86.51757812 32.49421875 86.51757812 -48.42578125 86.51757812 Z M-48.42578125 410.51757812 C-50.73100159 449.35237237 -50.73100159 449.35237237 -35.1015625 483.11523438 C-29.75432937 488.27779069 -24.50456257 491.33549508 -17.42578125 493.51757812 C-16.43578125 493.84757812 -15.44578125 494.17757812 -14.42578125 494.51757812 C-12.18063479 494.61824926 -9.93256959 494.65698246 -7.68518066 494.66474915 C-6.99617471 494.66842583 -6.30716876 494.67210252 -5.59728384 494.67589062 C-3.28294734 494.68692459 -0.96865574 494.69077088 1.34570312 494.69458008 C3.00315493 494.70084517 4.66060534 494.70749201 6.3180542 494.7144928 C11.76801576 494.73553804 17.21797761 494.7458987 22.66796875 494.75585938 C24.54580195 494.75990739 26.423635 494.76402432 28.3014679 494.76820946 C37.12797319 494.78726569 45.95447012 494.80149328 54.78099203 494.80982143 C64.95738152 494.8195823 75.13355282 494.84586991 85.30986547 494.88632232 C93.18179679 494.91653597 101.05366578 494.93129545 108.92565393 494.93460244 C113.62372675 494.93694783 118.32156661 494.94584083 123.01957703 494.97106361 C127.44538731 494.99443995 131.87081286 494.99853937 136.29666901 494.98830223 C137.91429681 494.987809 139.53194416 494.99406616 141.14951324 495.00785828 C154.66030681 495.11653775 165.46680048 493.16556829 175.57421875 483.51757812 C194.44300939 463.73578149 189.57421875 436.16291825 189.57421875 410.51757812 C111.03421875 410.51757812 32.49421875 410.51757812 -48.42578125 410.51757812 Z " fill="#000000" transform="translate(185.42578125,-0.517578125)"/>
<path d="M0 0 C3.03437855 2.02291903 3.81161043 3.42227198 4.9375 6.875 C5.0389661 11.94830475 2.91894215 15.04147265 -0.5390625 18.6484375 C-1.56009531 19.56583607 -2.58928653 20.47420826 -3.625 21.375 C-4.79918522 22.42726155 -5.97230806 23.48070943 -7.14453125 24.53515625 C-7.76924316 25.09348145 -8.39395508 25.65180664 -9.03759766 26.22705078 C-12.51371987 29.3675832 -15.90881168 32.59390886 -19.3125 35.8125 C-20.76540665 37.18252326 -22.21853274 38.55231384 -23.671875 39.921875 C-24.39181641 40.60056641 -25.11175781 41.27925781 -25.85351562 41.97851562 C-29.25145281 45.17857475 -32.65655369 48.37096959 -36.0625 51.5625 C-36.71839111 52.17714111 -37.37428223 52.79178223 -38.05004883 53.42504883 C-39.37202685 54.66378337 -40.69404824 55.90247162 -42.01611328 57.14111328 C-45.34475112 60.26002154 -48.67231906 63.38007087 -52 66.5 C-53.33332826 67.75000541 -54.66666159 69.00000541 -56 70.25 C-56.66 70.86875 -57.32 71.4875 -58 72.125 C-70.66666667 84 -83.33333333 95.875 -96 107.75 C-96.66032227 108.36907227 -97.32064453 108.98814453 -98.00097656 109.62597656 C-99.33097344 110.87280803 -100.66105124 112.11955317 -101.99121094 113.36621094 C-106.0654533 117.18493982 -110.13669536 121.00683161 -114.20532227 124.83154297 C-116.20977555 126.71225866 -118.21991528 128.58674767 -120.23046875 130.4609375 C-122.65931074 132.72851575 -125.05521896 135.02319581 -127.42578125 137.3515625 C-128.22483887 138.12161621 -128.22483887 138.12161621 -129.04003906 138.90722656 C-130.45363723 140.27004763 -131.85433727 141.64621287 -133.25390625 143.0234375 C-136.58530481 145.42128625 -138.92955773 145.83794492 -143 146 C-146.57387602 144.41161066 -147.81089572 143.28365642 -150 140 C-150.51283884 136.66654752 -150.72435644 134.20370997 -148.9375 131.234375 C-145.70919675 127.33935695 -141.91591023 124.08443322 -138.0703125 120.81640625 C-135.95127817 118.95725348 -133.97552383 117.01038601 -132 115 C-128.79970478 111.74970017 -125.45775424 108.75275755 -122 105.78125 C-119.91662922 103.9257479 -117.95718793 101.98776899 -116 100 C-112.79970478 96.74970017 -109.45775424 93.75275755 -106 90.78125 C-103.91662922 88.9257479 -101.95718793 86.98776899 -100 85 C-96.79970478 81.74970017 -93.45775424 78.75275755 -90 75.78125 C-87.91662922 73.9257479 -85.95718793 71.98776899 -84 70 C-80.79970478 66.74970017 -77.45775424 63.75275755 -74 60.78125 C-71.91662922 58.9257479 -69.95718793 56.98776899 -68 55 C-64.79970478 51.74970017 -61.45775424 48.75275755 -58 45.78125 C-55.91662922 43.9257479 -53.95718793 41.98776899 -52 40 C-48.79970478 36.74970017 -45.45775424 33.75275755 -42 30.78125 C-39.91662922 28.9257479 -37.95718793 26.98776899 -36 25 C-32.80020393 21.75020711 -29.46063953 18.75238428 -26 15.78515625 C-23.90542107 13.91558091 -21.95612984 11.95093833 -20 9.9375 C-8.64401114 -1.44066852 -8.64401114 -1.44066852 0 0 Z " fill="#000000" transform="translate(320,128)"/>
<path d="M0 0 C3.74785043 2.08213913 4.79482295 3.2947039 6 7.4375 C6 13.82622408 1.97384309 17.25883589 -2.30102539 21.56097412 C-3.01645508 22.2707843 -3.73188477 22.98059448 -4.46899414 23.71191406 C-5.22699814 24.47181641 -5.98500214 25.23171875 -6.76597595 26.01464844 C-9.26751258 28.51988364 -11.77616583 31.01785653 -14.28515625 33.515625 C-16.02522115 35.25449771 -17.76491646 36.99374033 -19.5042572 38.7333374 C-23.14696851 42.37448555 -26.79301296 46.0122513 -30.44165039 49.64746094 C-35.12672916 54.31551863 -39.80516654 58.99016374 -44.48136234 63.66711807 C-48.07116783 67.25665218 -51.66356941 70.84357832 -55.25686455 74.42961884 C-56.98350619 76.15307114 -58.70953651 77.87713611 -60.43495369 79.60181427 C-62.84092769 82.00562932 -65.25015999 84.40612785 -67.66040039 86.80566406 C-68.73658127 87.88252472 -68.73658127 87.88252472 -69.83450317 88.98114014 C-70.48922104 89.63159302 -71.1439389 90.2820459 -71.8184967 90.95220947 C-72.38795548 91.51999241 -72.95741426 92.08777534 -73.54412937 92.67276382 C-75.67744083 94.61758507 -76.90805935 94.98978437 -79.8125 95.3125 C-83.7307645 94.92835642 -85.21293267 93.70743683 -88 91 C-89.43304064 88.13391871 -89.30644155 86.18699217 -89 83 C-85.98899894 77.7426686 -82.00121386 73.71698746 -77.72460938 69.46582031 C-76.63609428 68.37204826 -76.63609428 68.37204826 -75.52558899 67.25617981 C-73.13663359 64.85845476 -70.74047604 62.46808079 -68.34375 60.078125 C-66.67723825 58.41026553 -65.01102345 56.7421093 -63.34509277 55.07366943 C-59.85814201 51.58377411 -56.3676093 48.09751206 -52.87451172 44.61376953 C-48.39530176 40.14597131 -43.92515353 35.66923112 -39.45763397 31.18974686 C-36.0212065 27.74609793 -32.58003663 24.30721988 -29.1374054 20.86977386 C-27.48689408 19.22059733 -25.83786887 17.56993212 -24.19035339 15.91776276 C-21.89016696 13.61250462 -19.58367954 11.31374265 -17.27539062 9.01660156 C-16.59475052 8.33191299 -15.91411041 7.64722443 -15.21284485 6.94178772 C-14.58206528 6.3166478 -13.95128571 5.69150787 -13.3013916 5.04742432 C-12.75719826 4.50398502 -12.21300491 3.96054573 -11.65232086 3.40063858 C-7.95978425 0.27055086 -4.82276853 -0.59054309 0 0 Z " fill="#000000" transform="translate(353,247)"/>
<path d="M0 0 C3.30290812 2.11724879 3.88526042 3.61275391 5 7.375 C5 13.7640103 0.50000693 17.72862867 -3.79083252 22.05078125 C-4.40915955 22.66348877 -5.02748657 23.27619629 -5.66455078 23.9074707 C-6.3251651 24.56998337 -6.98577942 25.23249603 -7.66641235 25.91508484 C-9.83786591 28.09022491 -12.01640297 30.25811217 -14.1953125 32.42578125 C-15.70974594 33.93902196 -17.22380923 35.45263321 -18.73751831 36.96659851 C-21.90346926 40.13098846 -25.07274282 43.29199893 -28.24462891 46.45043945 C-32.31650085 50.50527128 -36.38170795 54.56670583 -40.4446888 58.63044453 C-43.56697206 61.75245641 -46.69185036 64.87185959 -49.81762314 67.99037743 C-51.31818588 69.48775242 -52.81813881 70.98573878 -54.31747818 72.48433876 C-56.40722538 74.57192642 -58.50022656 76.65619312 -60.59423828 78.73950195 C-61.21661377 79.36233063 -61.83898926 79.9851593 -62.48022461 80.62686157 C-67.78512863 85.89201143 -67.78512863 85.89201143 -71.8125 86.25 C-75.39154719 85.96929042 -77.14250017 85.12271416 -80 83 C-81.65625874 79.68748253 -81.7288653 76.55597768 -81 73 C-75.55523766 64.52989356 -66.4946304 57.34992626 -59.38671875 50.25390625 C-57.96647285 48.83298589 -56.54637535 47.41191718 -55.12641907 45.9907074 C-52.16524605 43.02806698 -49.20228893 40.06722585 -46.23803711 37.10766602 C-42.43364888 33.3090059 -38.63380986 29.50583163 -34.83526897 25.70132542 C-31.91094611 22.77339769 -28.98425654 19.84784507 -26.05683327 16.9230175 C-24.65382242 15.52067451 -23.25155617 14.11758615 -21.85004234 12.71374702 C-19.89942123 10.76059728 -17.94564261 8.81066297 -15.9909668 6.86157227 C-15.1205777 5.98814682 -15.1205777 5.98814682 -14.23260498 5.09707642 C-9.61899661 0.50796175 -6.5953723 -0.91421002 0 0 Z " fill="#000000" transform="translate(243,128)"/>
<path d="M0 0 C5.60239742 3.98989927 9.25857741 9.35374219 11 16 C12.24896964 25.64410575 10.08998922 32.27413413 4.875 40.25 C-1.04375673 45.91141948 -6.78873479 48.30333999 -15 48.625 C-22.76385032 48.29623761 -28.57731843 46.46729753 -34.09765625 40.875 C-39.78870601 33.95692719 -41.55915797 28.02517553 -41.37109375 19.09765625 C-40.42687106 11.21588159 -36.29306951 5.284796 -30.171875 0.40625 C-20.37069863 -5.93983542 -10.13422872 -5.1124915 0 0 Z M-21 17 C-23.18038095 20.27057143 -23.63246755 21.20519469 -23 25 C-20.53235541 28.26600019 -19.04381805 29.78253791 -15 30.625 C-10.88710733 29.76814736 -9.40313068 28.42264067 -7 25 C-7 21.42813335 -7.25407733 19.11888401 -9.25 16.125 C-13.84536097 13.17083938 -16.74587892 13.78066513 -21 17 Z " fill="#000000" transform="translate(271,430)"/>
<path d="M0 0 C2.32002411 3.19003315 3.07601768 4.99379023 2.77807617 8.9375 C1.90848676 12.36019521 0.96645059 13.71367929 -1.44921875 16.25 C-2.26310059 17.10980469 -3.07698242 17.96960938 -3.91552734 18.85546875 C-4.94206926 19.90522817 -5.97040853 20.95323138 -7 22 C-7.62473206 22.64018066 -8.24946411 23.28036133 -8.89312744 23.93994141 C-13.37033697 28.52222114 -17.8825813 33.06834958 -22.4128418 37.59814453 C-24.82954375 40.01705936 -27.23809867 42.44390207 -29.64648438 44.87109375 C-31.18701124 46.41455049 -32.72800982 47.95753658 -34.26953125 49.5 C-34.98623489 50.22388916 -35.70293854 50.94777832 -36.44136047 51.69360352 C-37.11273544 52.36190186 -37.78411041 53.0302002 -38.47583008 53.71875 C-39.06157303 54.30591797 -39.64731598 54.89308594 -40.25080872 55.49804688 C-43.24275937 58.06710246 -45.51566605 58.9383575 -49.4375 59.4375 C-53 59 -53 59 -55.9375 56.9375 C-58 54 -58 54 -58.75 50.6875 C-57.03218811 42.24159155 -47.61528078 35.44254442 -41.70703125 29.50390625 C-40.83858078 28.62975571 -39.97013031 27.75560516 -39.07536316 26.85496521 C-37.25223576 25.02244886 -35.42769503 23.19133762 -33.60180664 21.36157227 C-30.80349104 18.55345949 -28.0160124 15.73486286 -25.22851562 12.91601562 C-23.45117894 11.13215656 -21.67320649 9.34893065 -19.89453125 7.56640625 C-18.64601128 6.29936607 -18.64601128 6.29936607 -17.37226868 5.00672913 C-16.59433456 4.23179611 -15.81640045 3.4568631 -15.01489258 2.65844727 C-13.99399284 1.63207909 -13.99399284 1.63207909 -12.95246887 0.5849762 C-8.61351807 -2.93729955 -4.99952007 -2.09070839 0 0 Z " fill="#000000" transform="translate(305,223)"/>
<path d="M0 0 C1.78216164 -0.01902626 1.78216164 -0.01902626 3.60032654 -0.03843689 C4.88472122 -0.03550125 6.16911591 -0.03256561 7.49243164 -0.02954102 C8.8104628 -0.03478287 10.12849396 -0.04002472 11.48646545 -0.04542542 C14.27655604 -0.05435998 17.06636047 -0.05193011 19.85644531 -0.04199219 C23.42897424 -0.03050626 27.00051419 -0.05070459 30.57291317 -0.07990932 C33.98363843 -0.10268793 37.3941321 -0.09580413 40.80493164 -0.09204102 C42.72848732 -0.10889198 42.72848732 -0.10889198 44.69090271 -0.12608337 C45.88216263 -0.11670242 47.07342255 -0.10732147 48.30078125 -0.09765625 C49.34874374 -0.09749008 50.39670624 -0.09732391 51.47642517 -0.09715271 C54.9186963 0.53282082 56.07775728 1.68538488 58.21508789 4.40405273 C59.43370683 8.14115082 59.38167627 9.92279741 58.09008789 13.65405273 C55.90985677 16.85172504 54.83677696 17.27943483 51.21508789 18.40405273 C48.60414124 18.66474915 48.60414124 18.66474915 45.78564453 18.67871094 C44.72426773 18.68824295 43.66289093 18.69777496 42.5693512 18.70759583 C41.43279587 18.70668442 40.29624054 18.70577301 39.12524414 18.70483398 C37.35932167 18.71126167 37.35932167 18.71126167 35.557724 18.71781921 C33.070553 18.72355655 30.58336523 18.72406718 28.09619141 18.71972656 C24.29503709 18.71656724 20.49466162 18.74003227 16.69360352 18.76538086 C14.2749847 18.76765399 11.8563638 18.76835729 9.43774414 18.76733398 C8.30321304 18.77654373 7.16868195 18.78575348 5.99977112 18.79524231 C-4.18718235 18.73563623 -4.18718235 18.73563623 -8.78491211 15.40405273 C-10.40852767 11.75091773 -11.07392904 9.56012045 -10.09741211 5.65405273 C-7.33707929 0.92205362 -5.52930393 0.02852911 0 0 Z " fill="#000000" transform="translate(231.784912109375,33.595947265625)"/>
<path d="M0 0 C3.59006454 0.80332137 4.97678728 2.4476028 6.97265625 5.44140625 C7.64904683 8.46421371 7.42824466 10.25228738 6.97265625 13.44140625 C4.94973722 16.4757848 3.55038427 17.25301668 0.09765625 18.37890625 C-3.83054557 18.45747029 -5.79150483 17.64766006 -9.02734375 15.44140625 C-10.84813099 12.51231374 -11.04291828 10.82298226 -10.90234375 7.37890625 C-9.14909658 1.49300505 -6.23027967 -0.36100686 0 0 Z " fill="#000000" transform="translate(198.02734375,33.55859375)"/>
</svg>
